<svg width="24" height="24" viewBox="0 0 24 24" fill="none" xmlns="http://www.w3.org/2000/svg">
    <style>
        @media (prefers-color-scheme: dark) {
        path { fill: white; }
        }
    </style>
    <path
       d="M22 5.36818C21.9997 4.4816 21.6474 3.63141 21.0204 3.00451C20.3935 2.37761 19.5432 2.02531 18.6565 2.02506C17.0348 2.00861 15.6952 3.16716 15.3629 4.68949H15.2801C15.1259 3.93577 14.7166 3.25823 14.1211 2.77103C13.5257 2.28384 12.7804 2.01678 12.011 2.01485C11.2416 2.01291 10.495 2.27623 9.89713 2.76043C9.29921 3.24463 8.8865 3.9201 8.72852 4.67304H8.64579C8.52274 4.07892 8.24077 3.52931 7.82993 3.0828C7.41909 2.6363 6.89478 2.30962 6.31288 2.13759C5.73098 1.96557 5.11331 1.95464 4.52569 2.10598C3.93807 2.25731 3.40253 2.56524 2.97615 2.99694C2.54977 3.42863 2.24853 3.96792 2.10453 4.55732C1.96054 5.14672 1.97919 5.76414 2.1585 6.34378C2.3378 6.92342 2.67105 7.44354 3.12271 7.84872C3.57437 8.2539 4.12752 8.52895 4.7232 8.64455V8.71082C3.95907 8.85982 3.27053 9.26984 2.77552 9.87065C2.2805 10.4715 2.00981 11.2257 2.00981 12.0041C2.00981 12.7826 2.2805 13.5368 2.77552 14.1376C3.27053 14.7384 3.95907 15.1484 4.7232 15.2974V15.3632C4.12691 15.4765 3.57264 15.7497 3.11966 16.1537C2.66668 16.5576 2.33203 17.0771 2.15151 17.6565C1.97099 18.2359 1.95139 18.8535 2.09481 19.4432C2.23822 20.0329 2.53925 20.5726 2.96571 21.0044C3.39216 21.4362 3.92799 21.7441 4.5159 21.8949C5.1038 22.0458 5.72166 22.034 6.3034 21.8609C6.88513 21.6877 7.40885 21.3597 7.81854 20.912C8.22824 20.4642 8.5085 19.9135 8.62934 19.3187H8.71207C9.02654 20.8411 10.3836 21.9977 11.9893 21.9977C12.7617 22.0013 13.5112 21.7358 14.1091 21.247C14.707 20.7581 15.1161 20.0763 15.266 19.3187H15.3487C15.6632 20.8411 17.0203 21.9977 18.626 21.9977C19.4581 21.9958 20.2598 21.6841 20.8747 21.1235C21.4896 20.5628 21.8738 19.7933 21.9523 18.9649C22.0308 18.1365 21.798 17.3086 21.2994 16.6424C20.8007 15.9762 20.0719 15.5195 19.2549 15.3613V15.2955C20.019 15.1465 20.7076 14.7365 21.2026 14.1357C21.6976 13.5349 21.9683 12.7807 21.9683 12.0022C21.9683 11.2238 21.6976 10.4696 21.2026 9.86877C20.7076 9.26796 20.019 8.85794 19.2549 8.70894V8.64267C20.0246 8.50698 20.7218 8.10427 21.2239 7.50535C21.726 6.90643 22.0008 6.14967 22 5.36818ZM17.3822 16.6045C17.3824 16.7067 17.3624 16.8079 17.3234 16.9024C17.2843 16.9968 17.227 17.0827 17.1548 17.1549C17.0825 17.2272 16.9967 17.2845 16.9022 17.3235C16.8077 17.3625 16.7065 17.3825 16.6043 17.3823H7.41895C7.31674 17.3825 7.2155 17.3625 7.12103 17.3235C7.02656 17.2845 6.94073 17.2272 6.86845 17.1549C6.79618 17.0827 6.73888 16.9968 6.69986 16.9024C6.66083 16.8079 6.64083 16.7067 6.64102 16.6045V7.4202C6.64083 7.318 6.66083 7.21677 6.69986 7.12231C6.73888 7.02785 6.79618 6.94203 6.86845 6.86976C6.94073 6.79749 7.02656 6.7402 7.12103 6.70118C7.2155 6.66215 7.31674 6.64216 7.41895 6.64235H16.6043C16.7065 6.64216 16.8077 6.66215 16.9022 6.70118C16.9967 6.7402 17.0825 6.79749 17.1548 6.86976C17.227 6.94203 17.2843 7.02785 17.3234 7.12231C17.3624 7.21677 17.3824 7.318 17.3822 7.4202V16.6045Z"
       fill="#000000"
    />
</svg>

